<svg width="36" height="36" viewBox="0 0 36 36" fill="none" xmlns="http://www.w3.org/2000/svg">
<ellipse cx="18" cy="18.0036" rx="18" ry="18.0036" fill="white"/>
<path d="M21.5992 13.5227C23.0314 13.5227 24.4049 14.0916 25.4176 15.1043C26.4303 16.117 26.9992 17.4905 26.9992 18.9227V25.2227H23.3992V18.9227C23.3992 18.4453 23.2096 17.9875 22.872 17.6499C22.5344 17.3123 22.0766 17.1227 21.5992 17.1227C21.1218 17.1227 20.664 17.3123 20.3264 17.6499C19.9889 17.9875 19.7992 18.4453 19.7992 18.9227V25.2227H16.1992V18.9227C16.1992 17.4905 16.7681 16.117 17.7808 15.1043C18.7935 14.0916 20.167 13.5227 21.5992 13.5227V13.5227Z" stroke="#383638" stroke-width="2" stroke-linecap="round" stroke-linejoin="round"/>
<path d="M12.6 14.4229H9V25.2229H12.6V14.4229Z" stroke="#383638" stroke-width="2" stroke-linecap="round" stroke-linejoin="round"/>
<path d="M10.8 11.7226C11.7941 11.7226 12.6 10.9167 12.6 9.92256C12.6 8.92845 11.7941 8.12256 10.8 8.12256C9.80589 8.12256 9 8.92845 9 9.92256C9 10.9167 9.80589 11.7226 10.8 11.7226Z" stroke="#383638" stroke-width="2" stroke-linecap="round" stroke-linejoin="round"/>
</svg>
