<svg width="36" height="36" viewBox="0 0 36 36" fill="none" xmlns="http://www.w3.org/2000/svg">
<ellipse cx="18" cy="18.0036" rx="18" ry="18.0036" fill="white"/>
<g clip-path="url(#clip0_1_1407)">
<path d="M27.8977 9.02272C27.0358 9.63065 26.0816 10.0956 25.0717 10.3997C24.5296 9.77648 23.8093 9.33474 23.008 9.13426C22.2067 8.93377 21.3632 8.9842 20.5915 9.27873C19.8199 9.57326 19.1573 10.0977 18.6933 10.7811C18.2294 11.4645 17.9866 12.2738 17.9977 13.0997V13.9997C16.416 14.0407 14.8488 13.69 13.4356 12.9786C12.0223 12.2673 10.8069 11.2175 9.89766 9.92272C9.89766 9.92272 6.29766 18.0227 14.3977 21.6227C12.5441 22.8809 10.3361 23.5118 8.09766 23.4227C16.1977 27.9227 26.0977 23.4227 26.0977 13.0727C26.0968 12.822 26.0727 12.572 26.0257 12.3257C26.9442 11.4199 27.5924 10.2762 27.8977 9.02272V9.02272Z" stroke="#383638" stroke-width="2" stroke-linecap="round" stroke-linejoin="round"/>
</g>
<defs>
<clipPath id="clip0_1_1407">
<rect width="21.6" height="21.6" fill="white" transform="translate(7.19922 6.32275)"/>
</clipPath>
</defs>
</svg>
