<svg width="36" height="36" viewBox="0 0 36 36" fill="none" xmlns="http://www.w3.org/2000/svg">
<ellipse cx="18" cy="18.0036" rx="18" ry="18.0036" fill="white"/>
<g clip-path="url(#clip0_1_1390)">
<path d="M22.5 8.12256H13.5C11.0147 8.12256 9 10.1373 9 12.6226V21.6226C9 24.1078 11.0147 26.1226 13.5 26.1226H22.5C24.9853 26.1226 27 24.1078 27 21.6226V12.6226C27 10.1373 24.9853 8.12256 22.5 8.12256Z" stroke="#383638" stroke-width="2" stroke-linecap="round" stroke-linejoin="round"/>
<path d="M21.5986 16.5558C21.7096 17.3049 21.5817 18.0698 21.2329 18.7419C20.8842 19.4141 20.3324 19.9591 19.656 20.2995C18.9797 20.64 18.2132 20.7585 17.4656 20.6382C16.718 20.5179 16.0273 20.1649 15.4919 19.6295C14.9565 19.094 14.6035 18.4034 14.4832 17.6558C14.3629 16.9082 14.4814 16.1417 14.8219 15.4654C15.1623 14.789 15.7073 14.2372 16.3795 13.8884C17.0516 13.5397 17.8165 13.4118 18.5656 13.5228C19.3296 13.6361 20.0369 13.9921 20.5831 14.5383C21.1292 15.0845 21.4853 15.7918 21.5986 16.5558Z" stroke="#383638" stroke-width="2" stroke-linecap="round" stroke-linejoin="round"/>
<path d="M22.9492 12.1729H22.9582" stroke="#383638" stroke-width="2" stroke-linecap="round" stroke-linejoin="round"/>
</g>
<defs>
<clipPath id="clip0_1_1390">
<rect width="21.6" height="21.6" fill="white" transform="translate(7.19922 6.32275)"/>
</clipPath>
</defs>
</svg>
